<?xml version="1.0" encoding="UTF-8" standalone="no"?>
<!DOCTYPE svg PUBLIC "-//W3C//DTD SVG 1.1//EN"
 "http://www.w3.org/Graphics/SVG/1.1/DTD/svg11.dtd">
<!-- Generated by graphviz version 2.38.0 (20140413.2041)
 -->
<!-- Title: G Pages: 1 -->
<svg width="354pt" height="366pt"
 viewBox="0.00 0.00 354.00 366.00" xmlns="http://www.w3.org/2000/svg" xmlns:xlink="http://www.w3.org/1999/xlink">
<g id="graph0" class="graph" transform="scale(1 1) rotate(0) translate(4 362)">
<title>G</title>
<polygon fill="white" stroke="none" points="-4,4 -4,-362 350,-362 350,4 -4,4"/>
<g id="clust1" class="cluster"><title>cluster_Global</title>
<path fill="none" stroke="gray" d="M20,-8C20,-8 326,-8 326,-8 332,-8 338,-14 338,-20 338,-20 338,-338 338,-338 338,-344 332,-350 326,-350 326,-350 20,-350 20,-350 14,-350 8,-344 8,-338 8,-338 8,-20 8,-20 8,-14 14,-8 20,-8"/>
<text text-anchor="middle" x="173" y="-337.2" font-family="Times,serif" font-size="11.00" fill="gray">Global</text>
</g>
<!-- \\CourseController -->
<g id="node1" class="node"><title>\\CourseController</title>
<polygon fill="none" stroke="black" points="327,-322 202,-322 202,-286 327,-286 327,-322"/>
<text text-anchor="middle" x="264.5" y="-301.2" font-family="Courier,monospace" font-size="11.00">CourseController</text>
</g>
<!-- \\BaseController -->
<g id="node5" class="node"><title>\\BaseController</title>
<polygon fill="none" stroke="black" points="127,-241 16,-241 16,-205 127,-205 127,-241"/>
<text text-anchor="start" x="37.5" y="-226.2" font-family="Courier,monospace" font-size="11.00">«abstract»</text>
<text text-anchor="start" x="24" y="-214.2" font-family="Courier,monospace" font-size="11.00">BaseController</text>
</g>
<!-- \\CourseController&#45;&gt;\\BaseController -->
<g id="edge1" class="edge"><title>\\CourseController&#45;&gt;\\BaseController</title>
<path fill="none" stroke="black" d="M220.114,-285.887C213.053,-282.926 205.821,-279.883 199,-277 174.256,-266.54 146.83,-254.845 123.858,-245.02"/>
<polygon fill="none" stroke="black" points="125.206,-241.79 114.635,-241.074 122.452,-248.226 125.206,-241.79"/>
</g>
<!-- \\HomeController -->
<g id="node2" class="node"><title>\\HomeController</title>
<polygon fill="none" stroke="black" points="320,-268 209,-268 209,-232 320,-232 320,-268"/>
<text text-anchor="middle" x="264.5" y="-247.2" font-family="Courier,monospace" font-size="11.00">HomeController</text>
</g>
<!-- \\HomeController&#45;&gt;\\BaseController -->
<g id="edge2" class="edge"><title>\\HomeController&#45;&gt;\\BaseController</title>
<path fill="none" stroke="black" d="M208.767,-242.263C186.489,-239.114 160.568,-235.449 137.35,-232.167"/>
<polygon fill="none" stroke="black" points="137.632,-228.672 127.241,-230.738 136.653,-235.604 137.632,-228.672"/>
</g>
<!-- \\StudentController -->
<g id="node3" class="node"><title>\\StudentController</title>
<polygon fill="none" stroke="black" points="330,-214 199,-214 199,-178 330,-178 330,-214"/>
<text text-anchor="middle" x="264.5" y="-193.2" font-family="Courier,monospace" font-size="11.00">StudentController</text>
</g>
<!-- \\StudentController&#45;&gt;\\BaseController -->
<g id="edge3" class="edge"><title>\\StudentController&#45;&gt;\\BaseController</title>
<path fill="none" stroke="black" d="M198.836,-205.141C179.022,-207.942 157.224,-211.023 137.394,-213.826"/>
<polygon fill="none" stroke="black" points="136.637,-210.399 127.225,-215.264 137.616,-217.33 136.637,-210.399"/>
</g>
<!-- \\TeacherController -->
<g id="node4" class="node"><title>\\TeacherController</title>
<polygon fill="none" stroke="black" points="330,-160 199,-160 199,-124 330,-124 330,-160"/>
<text text-anchor="middle" x="264.5" y="-139.2" font-family="Courier,monospace" font-size="11.00">TeacherController</text>
</g>
<!-- \\TeacherController&#45;&gt;\\BaseController -->
<g id="edge4" class="edge"><title>\\TeacherController&#45;&gt;\\BaseController</title>
<path fill="none" stroke="black" d="M220.114,-160.113C213.053,-163.074 205.821,-166.117 199,-169 174.256,-179.46 146.83,-191.155 123.858,-200.98"/>
<polygon fill="none" stroke="black" points="122.452,-197.774 114.635,-204.926 125.206,-204.21 122.452,-197.774"/>
</g>
<!-- \\ControllerFactory -->
<g id="node6" class="node"><title>\\ControllerFactory</title>
<polygon fill="none" stroke="black" points="330,-106 199,-106 199,-70 330,-70 330,-106"/>
<text text-anchor="middle" x="264.5" y="-85.2" font-family="Courier,monospace" font-size="11.00">ControllerFactory</text>
</g>
<!-- \\ViewManager -->
<g id="node7" class="node"><title>\\ViewManager</title>
<polygon fill="none" stroke="black" points="310,-52 219,-52 219,-16 310,-16 310,-52"/>
<text text-anchor="middle" x="264.5" y="-31.2" font-family="Courier,monospace" font-size="11.00">ViewManager</text>
</g>
</g>
</svg>
